#!OML:ASF E:\Steps\Project 1\Capture day 1\Session 2\Subject.ASF
:FULLY-SPECIFIED
:DEGREES
740
root 9.06723 20.9747 -16.0252 -155.604 3.89981 177.92
lowerback -20.8404 0.640848 -6.29116
upperback 1.52638 2.70893 -1.05406
thorax 13.2721 0.888779 3.26796
lowerneck -1.41348 -2.79675 -0.85672
upperneck 18.4031 -5.91802 4.22661
head 5.94436 -3.16137 1.0922
rclavicle 7.50412e-015 -3.39922e-014
rhumerus -30.8546 -7.92344 -83.3933
rradius 39.6435
rwrist -3.59232
rhand -6.14158 -56.4753
rfingers 7.12502
rthumb 19.6962 -85.4975
lclavicle 7.50412e-015 -3.39922e-014
lhumerus -25.7086 3.11159 76.6005
lradius 25.6015
lwrist -3.60039
lhand -22.3366 -13.6081
lfingers 7.12502
lthumb 4.08376 16.3325
rfemur -12.2593 7.53494 19.7318
rtibia 12.8419
rfoot -8.76647 -4.43969
rtoes -32.6863
lfemur -64.4873 -4.12564 -21.8408
ltibia 54.2074
lfoot -12.8085 -1.06363
ltoes -18.0999
741
root 9.05604 21.035 -16.1 -155.231 3.58331 178.236
lowerback -21.008 0.542013 -6.15672
upperback 1.3802 2.56526 -1.08795
thorax 13.2196 0.843418 3.11354
lowerneck -1.68464 -2.7147 -0.985827
upperneck 18.6003 -5.90803 4.69413
head 6.07005 -3.13199 1.25252
rclavicle 2.32081e-014 1.39149e-014
rhumerus -31.4185 -8.15685 -83.2355
rradius 39.4695
rwrist -3.60973
rhand -5.36375 -56.7237
rfingers 7.12502
rthumb 20.4439 -85.6675
lclavicle 2.32081e-014 1.39149e-014
lhumerus -25.6487 2.85782 76.6785
lradius 26.4093
lwrist -3.2369
lhand -22.354 -13.4227
lfingers 7.12502
lthumb 4.06696 16.5183
rfemur -12.5368 7.16787 20.0357
rtibia 12.9032
rfoot -7.11113 -4.41323
rtoes -26.821
lfemur -64.0992 -4.20902 -21.5078
ltibia 53.3716
lfoot -12.8151 -0.914184
ltoes -21.6636
742
root 9.0581 21.0991 -16.1791 -154.844 3.49505 178.452
lowerback -21.3486 0.414521 -6.39925
upperback 1.28712 2.48926 -1.06517
thorax 13.306 0.79248 3.2645
lowerneck -1.52262 -2.59734 -1.34967
upperneck 18.1885 -5.78857 5.41968
head 5.93706 -3.05019 1.55618
rclavicle 1.82882e-014 2.18663e-015
rhumerus -31.7837 -8.44857 -82.9704
rradius 39.1289
rwrist -3.43423
rhand -4.66669 -56.61
rfingers 7.12502
rthumb 21.1136 -85.4805
lclavicle 1.82882e-014 2.18663e-015
lhumerus -25.6425 2.56477 76.8596
lradius 27.4739
lwrist -2.78144
lhand -22.1893 -12.8907
lfingers 7.12502
lthumb 4.22593 17.0471
rfemur -12.9438 7.2901 20.1675
rtibia 13.0715
rfoot -5.64598 -4.30992
rtoes -32.0194
lfemur -63.6804 -4.05162 -21.2612
ltibia 52.4576
lfoot -12.8901 -0.73354
ltoes -24.7078
743
root 9.04509 21.1629 -16.2547 -154.467 3.1224 178.771
lowerback -21.6536 0.296235 -6.21126
upperback 1.22028 2.3071 -1.03285
thorax 13.4269 0.71972 3.14592
lowerneck -1.33569 -2.61317 -0.476394
upperneck 18.5626 -5.72069 4.15999
head 5.96477 -3.05628 1.01903
rclavicle -1.87852e-014 -6.36111e-015
rhumerus -32.3063 -8.8214 -82.7042
rradius 38.9845
rwrist -3.33116
rhand -4.91839 -56.3443
rfingers 7.12502
rthumb 20.8718 -85.2415
lclavicle -1.87852e-014 -6.36111e-015
lhumerus -25.4437 2.16248 77.0878
lradius 28.3366
lwrist -2.09704
lhand -22.0226 -12.4465
lfingers 7.12502
lthumb 4.38693 17.4881
rfemur -13.2803 6.75904 20.4923
rtibia 13.0953
rfoot -4.04031 -4.21977
rtoes -34.0039
lfemur -63.2879 -4.23497 -20.8816
ltibia 51.5898
lfoot -12.893 -0.718428
ltoes -26.0775
744
root 9.03655 21.2328 -16.3317 -154.23 3.20582 178.552
lowerback -21.903 0.12053 -6.67869
upperback 1.21943 2.25802 -1.20882
thorax 13.5697 0.67249 3.20514
lowerneck -1.39458 -2.63006 -1.16226
upperneck 18.1462 -5.84449 5.36656
head 5.89793 -3.07506 1.50781
rclavicle -8.94531e-016 3.97569e-016
rhumerus -32.8472 -8.97652 -82.5844
rradius 38.9206
rwrist -3.40748
rhand -5.13553 -56.0218
rfingers 7.12502
rthumb 20.6632 -84.9419
lclavicle -8.94531e-016 3.97569e-016
lhumerus -25.0876 1.71404 77.1982
lradius 28.9753
lwrist -1.43077
lhand -21.8865 -11.8719
lfingers 7.12502
lthumb 4.5184 18.0599
rfemur -13.6382 6.4634 20.0517
rtibia 13.2091
rfoot -2.62193 -3.84045
rtoes -34.0752
lfemur -62.5824 -4.3201 -21.1565
ltibia 50.525
lfoot -12.8316 -0.720501
ltoes -26.0074
745
root 9.03147 21.3027 -16.403 -154.145 3.1863 178.565
lowerback -21.889 -0.0404676 -6.94845
upperback 1.23046 2.13605 -1.30389
thorax 13.5844 0.604156 3.21127
lowerneck -1.58505 -2.71775 -0.834647
upperneck 18.2695 -5.94674 5.06168
head 5.95683 -3.11759 1.34628
rclavicle 1.40143e-014 2.0276e-014
rhumerus -33.2503 -8.9598 -82.4916
rradius 38.7403
rwrist -3.48412
rhand -5.00568 -56.0104
rfingers 7.12502
rthumb 20.788 -84.9168
lclavicle 1.40143e-014 2.0276e-014
lhumerus -24.9121 1.40628 77.2395
lradius 29.6123
lwrist -1.04101
lhand -22.0567 -12.1454
lfingers 7.12502
lthumb 4.35397 17.7899
rfemur -13.8778 6.361 19.9438
rtibia 13.5633
rfoot -1.47936 -3.92246
rtoes -35.063
lfemur -61.7708 -4.31734 -21.1516
ltibia 49.5334
lfoot -12.7592 -0.770605
ltoes -25.2813
746
root 9.02602 21.3711 -16.4762 -153.951 3.07347 178.783
lowerback -21.9541 -0.126123 -6.98715
upperback 1.14743 2.04131 -1.30237
thorax 13.5333 0.564942 3.20603
lowerneck -1.63716 -2.68651 -1.05134
upperneck 18.1261 -5.94926 5.53378
head 5.93965 -3.09984 1.53071
rclavicle 5.36719e-015 -1.19271e-014
rhumerus -33.7633 -9.0128 -82.2511
rradius 38.5455
rwrist -3.69491
rhand -5.18855 -56.1952
rfingers 7.12502
rthumb 20.6122 -85.1208
lclavicle 5.36719e-015 -1.19271e-014
lhumerus -25.0265 0.995702 77.4493
lradius 30.3298
lwrist -0.676508
lhand -22.5234 -13.3696
lfingers 7.12502
lthumb 3.90331 16.5744
rfemur -14.2903 6.09132 20.1088
rtibia 14.1245
rfoot -0.0866685 -3.76211
rtoes -35.0364
lfemur -61.1252 -4.2953 -20.8903
ltibia 48.6113
lfoot -12.7154 -0.825306
ltoes -24.5737
747
root 9.01774 21.4363 -16.5479 -153.704 3.01018 178.986
lowerback -22.0849 -0.154352 -6.92481
upperback 1.05223 2.01337 -1.36352
thorax 13.5043 0.567273 3.09563
lowerneck -1.50294 -2.69275 -1.2179
upperneck 18.1141 -5.97594 5.65759
head 5.92131 -3.12174 1.59853
rclavicle -1.09332e-014 -8.34896e-015
rhumerus -34.4074 -9.11597 -82.0468
rradius 38.4587
rwrist -3.93299
rhand -5.42042 -56.0824
rfingers 7.12502
rthumb 20.3894 -85.0319
lclavicle -1.09332e-014 -8.34896e-015
lhumerus -25.0225 0.514371 77.6253
lradius 31.1324
lwrist -0.610431
lhand -22.5914 -13.5745
lfingers 7.12502
lthumb 3.83771 16.3707
rfemur -14.8407 5.64477 20.2156
rtibia 14.7903
rfoot 1.31497 -3.50103
rtoes -34.0937
lfemur -60.5359 -4.2444 -20.6827
ltibia 47.6292
lfoot -12.5923 -0.826099
ltoes -24.8465
